<svg width="790" height="571" viewBox="0 0 790 571" fill="none" xmlns="http://www.w3.org/2000/svg">
<path d="M395 0.5C557.663 0.5 689.5 128.114 689.5 285.5C689.5 442.886 557.663 570.5 395 570.5C232.337 570.5 100.5 442.886 100.5 285.5C100.5 128.114 232.337 0.5 395 0.5ZM660.527 285.5C660.527 432.146 541.646 551.027 395 551.027C248.354 551.027 129.473 432.146 129.473 285.5C129.473 138.854 248.354 19.9727 395 19.9727C541.646 19.9727 660.527 138.854 660.527 285.5ZM636.343 285.5C636.343 418.79 528.29 526.843 395 526.843C261.71 526.843 153.657 418.79 153.657 285.5C153.657 152.21 261.71 44.1572 395 44.1572C528.29 44.1572 636.343 152.21 636.343 285.5ZM612.158 285.5C612.158 405.433 514.933 502.658 395 502.658C275.067 502.658 177.842 405.433 177.842 285.5C177.842 165.567 275.067 68.3418 395 68.3418C514.933 68.3418 612.158 165.567 612.158 285.5ZM587.974 285.5C587.974 392.077 501.577 478.474 395 478.474C288.423 478.474 202.026 392.077 202.026 285.5C202.026 178.923 288.423 92.5264 395 92.5264C501.577 92.5264 587.974 178.923 587.974 285.5ZM588.974 285.5C588.974 178.371 502.129 91.5264 395 91.5264C287.871 91.5264 201.026 178.371 201.026 285.5C201.026 392.629 287.871 479.474 395 479.474C502.129 479.474 588.974 392.629 588.974 285.5ZM613.158 285.5C613.158 165.014 515.486 67.3418 395 67.3418C274.514 67.3418 176.842 165.014 176.842 285.5C176.842 405.986 274.514 503.658 395 503.658C515.486 503.658 613.158 405.986 613.158 285.5ZM637.343 285.5C637.343 151.658 528.842 43.1572 395 43.1572C261.158 43.1572 152.657 151.658 152.657 285.5C152.657 419.342 261.158 527.843 395 527.843C528.842 527.843 637.343 419.342 637.343 285.5ZM661.527 285.5C661.527 138.301 542.199 18.9727 395 18.9727C247.801 18.9727 128.473 138.301 128.473 285.5C128.473 432.699 247.801 552.027 395 552.027C542.199 552.027 661.527 432.699 661.527 285.5Z" stroke="#2D3748"/>
</svg>
