<svg width="710" height="571" viewBox="0 0 710 571" fill="none" xmlns="http://www.w3.org/2000/svg">
<path d="M355 0.5C517.663 0.5 649.5 128.114 649.5 285.5C649.5 442.886 517.663 570.5 355 570.5C192.337 570.5 60.5 442.886 60.5 285.5C60.5 128.114 192.337 0.5 355 0.5ZM620.527 285.5C620.527 432.146 501.646 551.027 355 551.027C208.354 551.027 89.4727 432.146 89.4727 285.5C89.4727 138.854 208.354 19.9727 355 19.9727C501.646 19.9727 620.527 138.854 620.527 285.5ZM596.343 285.5C596.343 418.79 488.29 526.843 355 526.843C221.71 526.843 113.657 418.79 113.657 285.5C113.657 152.21 221.71 44.1572 355 44.1572C488.29 44.1572 596.343 152.21 596.343 285.5ZM572.158 285.5C572.158 405.433 474.933 502.658 355 502.658C235.067 502.658 137.842 405.433 137.842 285.5C137.842 165.567 235.067 68.3418 355 68.3418C474.933 68.3418 572.158 165.567 572.158 285.5ZM547.974 285.5C547.974 392.077 461.577 478.474 355 478.474C248.423 478.474 162.026 392.077 162.026 285.5C162.026 178.923 248.423 92.5264 355 92.5264C461.577 92.5264 547.974 178.923 547.974 285.5ZM548.974 285.5C548.974 178.371 462.129 91.5264 355 91.5264C247.871 91.5264 161.026 178.371 161.026 285.5C161.026 392.629 247.871 479.474 355 479.474C462.129 479.474 548.974 392.629 548.974 285.5ZM573.158 285.5C573.158 165.014 475.486 67.3418 355 67.3418C234.514 67.3418 136.842 165.014 136.842 285.5C136.842 405.986 234.514 503.658 355 503.658C475.486 503.658 573.158 405.986 573.158 285.5ZM597.343 285.5C597.343 151.658 488.842 43.1572 355 43.1572C221.158 43.1572 112.657 151.658 112.657 285.5C112.657 419.342 221.158 527.843 355 527.843C488.842 527.843 597.343 419.342 597.343 285.5ZM621.527 285.5C621.527 138.301 502.199 18.9727 355 18.9727C207.801 18.9727 88.4727 138.301 88.4727 285.5C88.4727 432.699 207.801 552.027 355 552.027C502.199 552.027 621.527 432.699 621.527 285.5Z" stroke="white"/>
</svg>
