<svg width="693" height="665" viewBox="0 0 693 665" fill="none" xmlns="http://www.w3.org/2000/svg">
<path d="M692.318 444.59L229.673 664.341L0.680664 220.409L463.326 0.658203L692.318 444.59ZM451.631 32.7988L34.4355 230.96L33.9688 231.182L34.2061 231.641L240.711 631.979L240.933 632.409L241.37 632.202L658.564 434.04L659.031 433.818L658.795 433.359L452.289 33.0215L452.067 32.5908L451.631 32.7988ZM657.669 433.358L241.377 631.091L35.3311 231.642L451.622 33.9092L657.669 433.358ZM439.926 66.0479L69.0859 242.191L68.6191 242.413L68.8564 242.873L252.416 598.729L252.639 599.159L253.075 598.951L623.915 422.808L624.382 422.586L624.145 422.127L440.585 66.2705L440.363 65.8408L439.926 66.0479ZM623.019 422.126L253.082 597.84L69.9814 242.872L439.917 67.1582L623.019 422.126ZM428.22 99.2988L103.735 253.424L103.269 253.646L103.505 254.104L264.12 565.479L264.342 565.909L264.779 565.702L589.265 411.576L589.73 411.354L589.494 410.896L428.879 99.5205L428.657 99.0908L428.22 99.2988ZM588.368 410.894L264.787 564.591L104.63 254.105L428.212 100.409L588.368 410.894Z" stroke="#2D3748"/>
</svg>
