<svg width="16" height="16" viewBox="0 0 16 16" fill="none" xmlns="http://www.w3.org/2000/svg">
<path d="M8.00004 1.33325C4.32404 1.33325 1.33337 4.32392 1.33337 7.99992V10.7619C1.33337 11.4446 1.93137 11.9999 2.66671 11.9999H3.33337C3.51019 11.9999 3.67975 11.9297 3.80478 11.8047C3.9298 11.6796 4.00004 11.5101 4.00004 11.3333V7.90459C4.00004 7.72777 3.9298 7.55821 3.80478 7.43318C3.67975 7.30816 3.51019 7.23792 3.33337 7.23792H2.72804C3.09871 4.65792 5.31871 2.66659 8.00004 2.66659C10.6814 2.66659 12.9014 4.65792 13.272 7.23792H12.6667C12.4899 7.23792 12.3203 7.30816 12.1953 7.43318C12.0703 7.55821 12 7.72777 12 7.90459V11.9999C12 12.7353 11.402 13.3333 10.6667 13.3333H9.33337V12.6666H6.66671V14.6666H10.6667C12.1374 14.6666 13.3334 13.4706 13.3334 11.9999C14.0687 11.9999 14.6667 11.4446 14.6667 10.7619V7.99992C14.6667 4.32392 11.676 1.33325 8.00004 1.33325Z" fill="black"/>
</svg>
