<svg width="16" height="16" viewBox="0 0 16 16" fill="none" xmlns="http://www.w3.org/2000/svg">
<g clip-path="url(#clip0_58_922)">
<path d="M13.0177 2.19999H9.81772C9.68981 1.8198 9.44578 1.48936 9.12004 1.25528C8.7943 1.02119 8.4033 0.895264 8.00217 0.895264C7.60104 0.895264 7.21003 1.02119 6.8843 1.25528C6.55856 1.48936 6.31452 1.8198 6.18661 2.19999H3.11106C3.00221 2.18425 2.89127 2.19177 2.78555 2.22205C2.67982 2.25233 2.58172 2.30469 2.49772 2.37568C2.41372 2.44666 2.34573 2.53465 2.29823 2.63383C2.25073 2.73302 2.22481 2.84116 2.22217 2.9511V14.3378C2.22275 14.437 2.24287 14.5351 2.28138 14.6266C2.31989 14.718 2.37603 14.801 2.4466 14.8707C2.51718 14.9405 2.6008 14.9956 2.69269 15.0331C2.78458 15.0705 2.88295 15.0895 2.98217 15.0889H13.0177C13.1169 15.0895 13.2153 15.0705 13.3072 15.0331C13.3991 14.9956 13.4827 14.9405 13.5533 14.8707C13.6239 14.801 13.68 14.718 13.7185 14.6266C13.757 14.5351 13.7771 14.437 13.7777 14.3378V2.9511C13.7771 2.85188 13.757 2.75375 13.7185 2.6623C13.68 2.57085 13.6239 2.48789 13.5533 2.41814C13.4827 2.34839 13.3991 2.29323 13.3072 2.2558C13.2153 2.21837 13.1169 2.19941 13.0177 2.19999ZM5.01772 3.53332C5.01772 3.41545 5.06455 3.3024 5.1479 3.21905C5.23125 3.13571 5.34429 3.08888 5.46217 3.08888H6.99106V2.80888C6.99106 2.536 7.09946 2.2743 7.29241 2.08135C7.48537 1.88839 7.74707 1.77999 8.01995 1.77999C8.29282 1.77999 8.55453 1.88839 8.74748 2.08135C8.94043 2.2743 9.04883 2.536 9.04883 2.80888V3.1111H10.5777C10.6956 3.1111 10.8086 3.15793 10.892 3.24128C10.9753 3.32463 11.0222 3.43767 11.0222 3.55555V4.35555H4.99995L5.01772 3.53332ZM11.4711 7.63555L7.41772 11.6889L5.08883 9.35999C4.97096 9.24212 4.90474 9.08224 4.90474 8.91555C4.90474 8.74885 4.97096 8.58898 5.08883 8.4711C5.20671 8.35323 5.36658 8.28701 5.53328 8.28701C5.69998 8.28701 5.85985 8.35323 5.97772 8.4711L7.42661 9.91999L10.5999 6.74666C10.7178 6.62878 10.8777 6.56256 11.0444 6.56256C11.2111 6.56256 11.371 6.62878 11.4888 6.74666C11.6067 6.86453 11.6729 7.0244 11.6729 7.1911C11.6729 7.3578 11.6067 7.51767 11.4888 7.63555H11.4711Z" fill="black"/>
</g>
<defs>
<clipPath id="clip0_58_922">
<rect width="16" height="16" fill="white"/>
</clipPath>
</defs>
</svg>
