<svg width="16" height="16" viewBox="0 0 16 16" fill="none" xmlns="http://www.w3.org/2000/svg">
<path d="M12 5.33342H11.3333V4.00008C11.3333 2.16008 9.83996 0.666748 7.99996 0.666748C6.15996 0.666748 4.66663 2.16008 4.66663 4.00008V5.33342H3.99996C3.26663 5.33342 2.66663 5.93341 2.66663 6.66675V13.3334C2.66663 14.0667 3.26663 14.6667 3.99996 14.6667H12C12.7333 14.6667 13.3333 14.0667 13.3333 13.3334V6.66675C13.3333 5.93341 12.7333 5.33342 12 5.33342ZM7.99996 11.3334C7.26663 11.3334 6.66663 10.7334 6.66663 10.0001C6.66663 9.26675 7.26663 8.66675 7.99996 8.66675C8.73329 8.66675 9.33329 9.26675 9.33329 10.0001C9.33329 10.7334 8.73329 11.3334 7.99996 11.3334ZM5.99996 5.33342V4.00008C5.99996 2.89341 6.89329 2.00008 7.99996 2.00008C9.10663 2.00008 9.99996 2.89341 9.99996 4.00008V5.33342H5.99996Z" fill="black"/>
</svg>
