<svg width="24" height="24" viewBox="0 0 24 24" fill="none" xmlns="http://www.w3.org/2000/svg">
<path fill-rule="evenodd" clip-rule="evenodd" d="M14.839 14.9201C15.3366 14.4034 16.0028 14.082 16.7169 14.0143C17.4309 13.9466 18.1457 14.137 18.7315 14.5509C19.3172 14.9649 19.7353 15.575 19.9099 16.2708C20.0845 16.9665 20.004 17.7017 19.6831 18.3432C19.3621 18.9847 18.8219 19.49 18.1605 19.7674C17.499 20.0448 16.76 20.0761 16.0775 19.8555C15.395 19.6349 14.8141 19.1771 14.4401 18.565C14.0661 17.9529 13.9238 17.2271 14.039 16.5191L9.16605 14.0761C8.75178 14.5084 8.21759 14.8069 7.63224 14.9332C7.04689 15.0594 6.43715 15.0075 5.88151 14.7843C5.32587 14.5611 4.84974 14.1767 4.51441 13.6806C4.17908 13.1845 3.99988 12.5994 3.99988 12.0006C3.99988 11.4018 4.17908 10.8167 4.51441 10.3206C4.84974 9.82445 5.32587 9.44005 5.88151 9.21682C6.43715 8.9936 7.04689 8.94176 7.63224 9.06798C8.21759 9.1942 8.75178 9.4927 9.16605 9.92507L14.039 7.48207C13.9238 6.77409 14.0661 6.04826 14.4401 5.43617C14.8141 4.82407 15.395 4.36623 16.0775 4.14564C16.76 3.92504 17.499 3.9563 18.1605 4.23374C18.8219 4.51118 19.3621 5.01645 19.6831 5.65793C20.004 6.29942 20.0845 7.03467 19.9099 7.7304C19.7353 8.42612 19.3172 9.03627 18.7315 9.45023C18.1457 9.86419 17.4309 10.0546 16.7169 9.98684C16.0028 9.91912 15.3366 9.59778 14.839 9.08107L9.96205 11.5191C10.0138 11.8377 10.0138 12.1625 9.96205 12.4811L14.839 14.9201ZM17 8.00007C17.2653 8.00007 17.5196 7.89472 17.7072 7.70718C17.8947 7.51964 18 7.26529 18 7.00007C18 6.73486 17.8947 6.4805 17.7072 6.29297C17.5196 6.10543 17.2653 6.00007 17 6.00007C16.7348 6.00007 16.4805 6.10543 16.2929 6.29297C16.1054 6.4805 16 6.73486 16 7.00007C16 7.26529 16.1054 7.51964 16.2929 7.70718C16.4805 7.89472 16.7348 8.00007 17 8.00007ZM17 18.0001C17.2653 18.0001 17.5196 17.8947 17.7072 17.7072C17.8947 17.5196 18 17.2653 18 17.0001C18 16.7349 17.8947 16.4805 17.7072 16.293C17.5196 16.1054 17.2653 16.0001 17 16.0001C16.7348 16.0001 16.4805 16.1054 16.2929 16.293C16.1054 16.4805 16 16.7349 16 17.0001C16 17.2653 16.1054 17.5196 16.2929 17.7072C16.4805 17.8947 16.7348 18.0001 17 18.0001ZM7.00005 13.0001C7.26527 13.0001 7.51962 12.8947 7.70716 12.7072C7.89469 12.5196 8.00005 12.2653 8.00005 12.0001C8.00005 11.7349 7.89469 11.4805 7.70716 11.293C7.51962 11.1054 7.26527 11.0001 7.00005 11.0001C6.73483 11.0001 6.48048 11.1054 6.29294 11.293C6.10541 11.4805 6.00005 11.7349 6.00005 12.0001C6.00005 12.2653 6.10541 12.5196 6.29294 12.7072C6.48048 12.8947 6.73483 13.0001 7.00005 13.0001Z" fill="black"/>
</svg>
