<svg width="24" height="24" viewBox="0 0 24 24" fill="none" xmlns="http://www.w3.org/2000/svg">
<path fill-rule="evenodd" clip-rule="evenodd" d="M19.5817 15.1262V18.1262H22.5817V20.1263L19.5817 20.1262V23.1262H17.5817V20.1262H14.5817V18.1262H17.5817V15.1262H19.5817ZM10.5817 1L13.2465 7.40697L20.1634 7.9615L14.8935 12.4757L16.0027 17.1262H13.5817V17.4408L10.5817 15.6085L4.65986 19.2255L6.26992 12.4757L1 7.9615L7.91688 7.40697L10.5817 1ZM10.5817 6.20627L9.29439 9.30297L5.95267 9.57025L8.49878 11.7516L7.72066 15.0122L10.5817 13.2649L13.4417 15.0122L12.6646 11.7516L15.2097 9.57025L11.869 9.30297L10.5817 6.20627Z" fill="black"/>
</svg>
