<svg width="153" height="24" viewBox="0 0 153 24" fill="none" xmlns="http://www.w3.org/2000/svg">
<path d="M13 9V3H21V9H13ZM3 13V3H11V13H3ZM13 21V11H21V21H13ZM3 21V15H11V21H3Z" fill="black"/>
<path d="M37.296 19V5.59H41.67C43.086 5.59 44.316 5.878 45.36 6.454C46.416 7.018 47.232 7.804 47.808 8.812C48.384 9.808 48.672 10.966 48.672 12.286C48.672 13.594 48.384 14.758 47.808 15.778C47.232 16.786 46.416 17.578 45.36 18.154C44.316 18.718 43.086 19 41.67 19H37.296ZM39.744 16.84H41.724C42.636 16.84 43.422 16.654 44.082 16.282C44.754 15.898 45.276 15.37 45.648 14.698C46.02 14.014 46.206 13.21 46.206 12.286C46.206 11.35 46.02 10.546 45.648 9.874C45.276 9.202 44.754 8.68 44.082 8.308C43.422 7.936 42.636 7.75 41.724 7.75H39.744V16.84ZM48.9773 19L53.6033 5.59H56.7713L61.3973 19H58.7333L57.7793 16.12H52.5953L51.6233 19H48.9773ZM53.2973 13.96H57.0773L54.8453 7.282H55.5293L53.2973 13.96ZM67.502 19.216C66.65 19.216 65.858 19.06 65.126 18.748C64.406 18.436 63.782 18.004 63.254 17.452C62.738 16.888 62.36 16.234 62.12 15.49L64.154 14.608C64.478 15.376 64.946 15.982 65.558 16.426C66.17 16.858 66.86 17.074 67.628 17.074C68.06 17.074 68.432 17.008 68.744 16.876C69.068 16.732 69.314 16.54 69.482 16.3C69.662 16.06 69.752 15.772 69.752 15.436C69.752 15.04 69.632 14.716 69.392 14.464C69.164 14.2 68.816 13.996 68.348 13.852L65.774 13.024C64.73 12.7 63.944 12.214 63.416 11.566C62.888 10.918 62.624 10.156 62.624 9.28C62.624 8.512 62.81 7.834 63.182 7.246C63.566 6.658 64.094 6.202 64.766 5.878C65.45 5.542 66.23 5.374 67.106 5.374C67.91 5.374 68.648 5.518 69.32 5.806C69.992 6.082 70.568 6.472 71.048 6.976C71.54 7.468 71.906 8.05 72.146 8.722L70.13 9.622C69.866 8.95 69.47 8.434 68.942 8.074C68.414 7.702 67.802 7.516 67.106 7.516C66.698 7.516 66.338 7.588 66.026 7.732C65.714 7.864 65.468 8.056 65.288 8.308C65.12 8.548 65.036 8.836 65.036 9.172C65.036 9.544 65.156 9.874 65.396 10.162C65.636 10.438 66.002 10.654 66.494 10.81L68.96 11.584C70.028 11.932 70.826 12.412 71.354 13.024C71.894 13.636 72.164 14.392 72.164 15.292C72.164 16.06 71.966 16.738 71.57 17.326C71.174 17.914 70.628 18.376 69.932 18.712C69.236 19.048 68.426 19.216 67.502 19.216ZM74.3683 19V5.59H76.8163V11.44H82.5223V5.59H84.9883V19H82.5223V13.6H76.8163V19H74.3683ZM87.5694 19V5.59H93.2214C94.1094 5.59 94.8654 5.746 95.4894 6.058C96.1254 6.358 96.6114 6.79 96.9474 7.354C97.2954 7.906 97.4694 8.578 97.4694 9.37C97.4694 9.982 97.3014 10.558 96.9654 11.098C96.6414 11.626 96.1194 12.064 95.3994 12.412V11.278C96.0594 11.53 96.5814 11.842 96.9654 12.214C97.3494 12.586 97.6194 13 97.7754 13.456C97.9314 13.912 98.0094 14.392 98.0094 14.896C98.0094 16.18 97.5834 17.188 96.7314 17.92C95.8914 18.64 94.7214 19 93.2214 19H87.5694ZM90.0174 16.84H93.4734C94.1094 16.84 94.6134 16.666 94.9854 16.318C95.3694 15.958 95.5614 15.484 95.5614 14.896C95.5614 14.308 95.3694 13.834 94.9854 13.474C94.6134 13.114 94.1094 12.934 93.4734 12.934H90.0174V16.84ZM90.0174 10.792H93.3474C93.8514 10.792 94.2534 10.648 94.5534 10.36C94.8534 10.06 95.0034 9.676 95.0034 9.208C95.0034 8.74 94.8534 8.368 94.5534 8.092C94.2534 7.816 93.8514 7.678 93.3474 7.678H90.0174V10.792ZM106.621 19.216C105.637 19.216 104.719 19.042 103.867 18.694C103.015 18.346 102.271 17.86 101.635 17.236C100.999 16.612 100.501 15.88 100.141 15.04C99.7928 14.188 99.6188 13.27 99.6188 12.286C99.6188 11.29 99.7928 10.372 100.141 9.532C100.489 8.692 100.981 7.96 101.617 7.336C102.253 6.712 102.997 6.232 103.849 5.896C104.701 5.548 105.625 5.374 106.621 5.374C107.617 5.374 108.541 5.548 109.393 5.896C110.245 6.244 110.989 6.73 111.625 7.354C112.261 7.966 112.753 8.692 113.101 9.532C113.461 10.372 113.641 11.29 113.641 12.286C113.641 13.27 113.461 14.188 113.101 15.04C112.741 15.88 112.243 16.612 111.607 17.236C110.971 17.86 110.227 18.346 109.375 18.694C108.535 19.042 107.617 19.216 106.621 19.216ZM106.621 16.984C107.281 16.984 107.887 16.87 108.439 16.642C108.991 16.402 109.471 16.072 109.879 15.652C110.299 15.232 110.617 14.734 110.833 14.158C111.061 13.582 111.175 12.958 111.175 12.286C111.175 11.614 111.061 10.996 110.833 10.432C110.617 9.856 110.299 9.358 109.879 8.938C109.471 8.506 108.991 8.176 108.439 7.948C107.887 7.72 107.281 7.606 106.621 7.606C105.973 7.606 105.373 7.72 104.821 7.948C104.269 8.176 103.783 8.506 103.363 8.938C102.955 9.358 102.637 9.856 102.409 10.432C102.181 10.996 102.067 11.614 102.067 12.286C102.067 12.958 102.181 13.582 102.409 14.158C102.637 14.734 102.955 15.232 103.363 15.652C103.783 16.072 104.269 16.402 104.821 16.642C105.373 16.87 105.973 16.984 106.621 16.984ZM114.175 19L118.801 5.59H121.969L126.595 19H123.931L122.977 16.12H117.793L116.821 19H114.175ZM118.495 13.96H122.275L120.043 7.282H120.727L118.495 13.96ZM128.087 19V5.59H133.073C133.985 5.59 134.789 5.758 135.485 6.094C136.193 6.418 136.745 6.898 137.141 7.534C137.537 8.158 137.735 8.92 137.735 9.82C137.735 10.744 137.513 11.53 137.069 12.178C136.637 12.826 136.049 13.306 135.305 13.618L138.383 19H135.611L132.317 13.114L133.901 14.05H130.535V19H128.087ZM130.535 11.89H133.109C133.553 11.89 133.937 11.806 134.261 11.638C134.585 11.458 134.837 11.212 135.017 10.9C135.197 10.588 135.287 10.228 135.287 9.82C135.287 9.4 135.197 9.04 135.017 8.74C134.837 8.428 134.585 8.188 134.261 8.02C133.937 7.84 133.553 7.75 133.109 7.75H130.535V11.89ZM139.987 19V5.59H144.361C145.777 5.59 147.007 5.878 148.051 6.454C149.107 7.018 149.923 7.804 150.499 8.812C151.075 9.808 151.363 10.966 151.363 12.286C151.363 13.594 151.075 14.758 150.499 15.778C149.923 16.786 149.107 17.578 148.051 18.154C147.007 18.718 145.777 19 144.361 19H139.987ZM142.435 16.84H144.415C145.327 16.84 146.113 16.654 146.773 16.282C147.445 15.898 147.967 15.37 148.339 14.698C148.711 14.014 148.897 13.21 148.897 12.286C148.897 11.35 148.711 10.546 148.339 9.874C147.967 9.202 147.445 8.68 146.773 8.308C146.113 7.936 145.327 7.75 144.415 7.75H142.435V16.84Z" fill="black"/>
</svg>
