<svg width="18" height="18" viewBox="0 0 18 18" fill="none" xmlns="http://www.w3.org/2000/svg">
<path fill-rule="evenodd" clip-rule="evenodd" d="M5.22902 2.83263C5.30836 2.77164 5.37469 2.69538 5.4241 2.60835C5.47352 2.52133 5.50501 2.42529 5.51674 2.32591C5.52846 2.22652 5.52018 2.12579 5.49237 2.02966C5.46457 1.93352 5.4178 1.84392 5.35484 1.76614C5.29187 1.68836 5.21397 1.62396 5.12573 1.57675C5.03749 1.52953 4.9407 1.50046 4.84105 1.49123C4.7414 1.482 4.64091 1.49281 4.5455 1.52302C4.4501 1.55323 4.3617 1.60223 4.28552 1.66713C3.47614 2.32066 2.81156 3.13542 2.33402 4.05963C2.28668 4.14727 2.25727 4.24347 2.24751 4.3426C2.23775 4.44174 2.24783 4.54182 2.27717 4.63702C2.30652 4.73221 2.35453 4.8206 2.4184 4.89704C2.48228 4.97347 2.56075 5.03642 2.64922 5.0822C2.73769 5.12798 2.83439 5.15567 2.93368 5.16367C3.03297 5.17167 3.13286 5.15981 3.22752 5.12878C3.32218 5.09775 3.4097 5.04817 3.48499 4.98295C3.56028 4.91772 3.62182 4.83815 3.66602 4.74888C4.04831 4.00853 4.58062 3.35593 5.22902 2.83263ZM13.7145 1.66713C13.6383 1.60223 13.5499 1.55323 13.4545 1.52302C13.3591 1.49281 13.2586 1.482 13.159 1.49123C13.0593 1.50046 12.9625 1.52953 12.8743 1.57675C12.7861 1.62396 12.7082 1.68836 12.6452 1.76614C12.5822 1.84392 12.5355 1.93352 12.5077 2.02966C12.4799 2.12579 12.4716 2.22652 12.4833 2.32591C12.495 2.42529 12.5265 2.52133 12.5759 2.60835C12.6254 2.69538 12.6917 2.77164 12.771 2.83263C13.4221 3.3583 13.956 4.01435 14.3385 4.75863C14.3836 4.84619 14.4455 4.92401 14.5207 4.98764C14.5959 5.05127 14.6829 5.09947 14.7767 5.12949C14.8705 5.1595 14.9693 5.17075 15.0675 5.16258C15.1656 5.15441 15.2612 5.12699 15.3488 5.08188C15.4363 5.03677 15.5141 4.97486 15.5778 4.89968C15.6414 4.82449 15.6896 4.73751 15.7196 4.6437C15.7496 4.54989 15.7609 4.45109 15.7527 4.35293C15.7446 4.25478 15.7171 4.15919 15.672 4.07163C15.1941 3.14253 14.5274 2.32354 13.7145 1.66713ZM3.75002 7.49988C3.75002 6.1075 4.30314 4.77214 5.28771 3.78757C6.27228 2.80301 7.60763 2.24988 9.00002 2.24988C10.3924 2.24988 11.7278 2.80301 12.7123 3.78757C13.6969 4.77214 14.25 6.1075 14.25 7.49988V10.3229L15.6165 13.0559C15.6794 13.1817 15.7091 13.3215 15.7028 13.462C15.6965 13.6025 15.6544 13.739 15.5804 13.8586C15.5065 13.9783 15.4032 14.077 15.2803 14.1455C15.1575 14.214 15.0192 14.2499 14.8785 14.2499H3.12152C2.98088 14.2499 2.84257 14.214 2.71972 14.1455C2.59688 14.077 2.49357 13.9783 2.41963 13.8586C2.34569 13.739 2.30355 13.6025 2.29723 13.462C2.29091 13.3215 2.32062 13.1817 2.38352 13.0559L3.75002 10.3229V7.49988ZM6.75002 14.9999H11.25C11.25 15.3977 11.092 15.7792 10.8107 16.0605C10.5294 16.3418 10.1478 16.4999 9.75002 16.4999H8.25002C7.8522 16.4999 7.47067 16.3418 7.18936 16.0605C6.90806 15.7792 6.75002 15.3977 6.75002 14.9999Z" fill="black"/>
</svg>
