<svg width="16" height="16" viewBox="0 0 16 16" fill="none" xmlns="http://www.w3.org/2000/svg">
<path d="M7.96871 1.5C6.42404 1.5 5.22337 1.5 4.28871 1.6C3.34337 1.702 2.59471 1.91333 1.99737 2.39067C1.38404 2.88133 1.09737 3.51933 0.962041 4.324C0.833374 5.092 0.833374 6.06933 0.833374 7.288V7.41C0.833374 8.598 0.833374 9.42 0.966707 10.0327C1.03871 10.3627 1.15204 10.6493 1.33004 10.9147C1.50604 11.176 1.73004 11.396 1.99737 11.6093C2.41804 11.946 2.91404 12.1493 3.50004 12.276V14C3.50012 14.0876 3.52321 14.1736 3.567 14.2495C3.6108 14.3254 3.67375 14.3884 3.74957 14.4323C3.82538 14.4762 3.9114 14.4994 3.999 14.4996C4.0866 14.4997 4.17271 14.4769 4.24871 14.4333C4.63937 14.21 4.98537 13.9667 5.30204 13.7373L5.50471 13.59C5.73021 13.4212 5.96053 13.2589 6.19537 13.1033C6.75804 12.738 7.29537 12.5 8.00004 12.5H8.03137C9.57604 12.5 10.7767 12.5 11.7114 12.4C12.6567 12.298 13.4054 12.0867 14.0027 11.6093C14.2694 11.396 14.494 11.176 14.6694 10.9147C14.848 10.6493 14.9614 10.3627 15.0334 10.0327C15.1667 9.42 15.1667 8.598 15.1667 7.41V7.288C15.1667 6.06933 15.1667 5.092 15.038 4.32467C14.9027 3.51933 14.616 2.88133 14.0027 2.39067C13.4054 1.91267 12.6567 1.702 11.7114 1.60067C10.7767 1.5 9.57604 1.5 8.03137 1.5H7.96871Z" fill="black"/>
</svg>
