<svg width="16" height="16" viewBox="0 0 16 16" fill="none" xmlns="http://www.w3.org/2000/svg">
<g clip-path="url(#clip0_58_901)">
<path d="M9.88002 0.666748H6.12002L5.68868 2.82475C5.33155 2.98479 4.99196 3.18139 4.67535 3.41141L2.58868 2.70541L0.709351 5.96142L2.36335 7.41475C2.32341 7.80395 2.32341 8.19622 2.36335 8.58541L0.709351 10.0387L2.58935 13.2947L4.67535 12.5894C4.99002 12.8174 5.32868 13.0147 5.68868 13.1754L6.12002 15.3334H9.88002L10.3114 13.1754C10.6685 13.0154 11.0081 12.8188 11.3247 12.5887L13.4114 13.2947L15.2914 10.0387L13.6367 8.58541C13.6766 8.19622 13.6766 7.80395 13.6367 7.41475L15.2907 5.96142L13.4107 2.70541L11.3254 3.41075C11.0087 3.18096 10.6691 2.98458 10.312 2.82475L9.88002 0.666748ZM8.00002 10.6667C7.29277 10.6667 6.6145 10.3858 6.1144 9.8857C5.6143 9.3856 5.33335 8.70733 5.33335 8.00008C5.33335 7.29284 5.6143 6.61456 6.1144 6.11446C6.6145 5.61437 7.29277 5.33342 8.00002 5.33342C8.70726 5.33342 9.38554 5.61437 9.88564 6.11446C10.3857 6.61456 10.6667 7.29284 10.6667 8.00008C10.6667 8.70733 10.3857 9.3856 9.88564 9.8857C9.38554 10.3858 8.70726 10.6667 8.00002 10.6667Z" fill="black"/>
</g>
<defs>
<clipPath id="clip0_58_901">
<rect width="16" height="16" fill="white"/>
</clipPath>
</defs>
</svg>
